<svg height="512" viewBox="0 0 128 128" width="512" xmlns="http://www.w3.org/2000/svg"><path d="m49.513 36.759a1.74 1.74 0 0 0 -2.039 1.4c-.163.88-.286 1.788-.363 2.7a1.749 1.749 0 0 0 1.594 1.893c.051 0 .1.007.151.007a1.751 1.751 0 0 0 1.742-1.6c.068-.8.175-1.592.317-2.361a1.748 1.748 0 0 0 -1.402-2.039z"/><path d="m58.009 75.493a15.4 15.4 0 0 0 -3.319 4.462 1.751 1.751 0 0 0 1.56 2.545h5.778a7.636 7.636 0 0 1 -.586 1.357 9.872 9.872 0 0 0 0 9.405 6.38 6.38 0 0 1 0 6.215 9.876 9.876 0 0 0 0 9.407 5.76 5.76 0 0 1 .808 3.11 1.75 1.75 0 0 0 3.5 0 9.17 9.17 0 0 0 -1.192-4.7 6.387 6.387 0 0 1 0-6.219 9.872 9.872 0 0 0 0-9.405 6.376 6.376 0 0 1 0-6.213 9.474 9.474 0 0 0 1.05-2.953h6.142a1.751 1.751 0 0 0 1.56-2.545 15.4 15.4 0 0 0 -3.319-4.462c10.771-3.657 19.009-16.841 19.009-32.029 0-16.654-10.748-29.212-25-29.212s-25 12.558-25 29.212c0 15.188 8.238 28.372 19.009 32.025zm1.471 3.507a6.183 6.183 0 0 1 4.52-2.5 6.183 6.183 0 0 1 4.52 2.5zm4.52-61.244c12.257 0 21.5 11.054 21.5 25.712 0 15.732-10.047 29.532-21.5 29.532s-21.5-13.8-21.5-29.532c0-14.658 9.243-25.712 21.5-25.712z"/><path d="m52.448 32.09a1.747 1.747 0 0 0 1.443-.757 12.76 12.76 0 0 1 6.23-4.929 1.75 1.75 0 0 0 -1.156-3.3 16.224 16.224 0 0 0 -7.955 6.245 1.75 1.75 0 0 0 1.438 2.744z"/></svg>
