<svg id="Capa_1" enable-background="new 0 0 512 512" height="512" viewBox="0 0 512 512" width="512" xmlns="http://www.w3.org/2000/svg"><g><path d="m497 165c-41.355 0-75 33.645-75 75v80.29l-21.381 41.522-17.181-25.779c-13.849-20.751-41.793-26.269-62.396-12.477-20.693 13.788-26.276 41.705-12.484 62.405l52.442 78.663v32.376c0 8.284 6.716 15 15 15h91c8.284 0 15-6.716 15-15v-37.163c5.64-23.855 10.238-42.609 13.949-57.747 11.615-47.376 15.121-61.674 16.044-91.25.005-.156.007-.312.007-.468v-130.372c0-8.284-6.716-15-15-15zm-15 145.137c-.835 26.268-3.895 38.747-15.188 84.81-3.813 15.551-8.558 34.905-14.411 59.697-.267 1.129-.401 2.286-.401 3.446v23.91h-61v-21.918c0-2.961-.876-5.856-2.519-8.32l-54.959-82.438c-4.586-6.883-2.762-16.193 4.182-20.82 6.884-4.608 16.173-2.72 20.775 4.175l31.318 46.992c2.948 4.423 8.025 6.95 13.324 6.658 5.308-.299 10.061-3.384 12.494-8.109l34.721-67.427c1.093-2.124 1.664-4.479 1.664-6.867v-83.926c0-19.556 12.539-36.239 30-42.43z"/><path d="m406 150c0-82.71-67.29-150-150-150s-150 67.29-150 150 67.29 150 150 150 150-67.29 150-150zm-150 120c-66.168 0-120-53.832-120-120s53.832-120 120-120c8.271 0 15 6.729 15 15s-6.729 15-15 15c-8.284 0-15 6.716-15 15s6.716 15 15 15c24.813 0 45-20.187 45-45 0-2.183-.165-4.327-.466-6.427 44.182 17.721 75.466 60.987 75.466 111.427 0 66.168-53.832 120-120 120z"/><path d="m347.82 103.18c-17.546-17.545-46.094-17.545-63.64 0-5.858 5.858-5.858 15.355 0 21.213s15.355 5.857 21.213 0c5.849-5.849 15.365-5.849 21.214 0 5.859 5.858 15.355 5.857 21.213 0 5.858-5.858 5.858-15.355 0-21.213z"/><path d="m206.607 124.394c5.859 5.858 15.355 5.857 21.213 0 5.857-5.858 5.857-15.355 0-21.213-17.546-17.545-46.094-17.545-63.64 0-5.858 5.858-5.858 15.355 0 21.213s15.355 5.857 21.213 0c5.849-5.849 15.365-5.849 21.214 0z"/><path d="m301 165h-90c-8.284 0-15 6.716-15 15 0 33.084 26.916 60 60 60s60-26.916 60-60c0-8.284-6.716-15-15-15zm-45 45c-11.082 0-20.779-6.039-25.974-15.01h51.948c-5.195 8.971-14.892 15.01-25.974 15.01z"/><path d="m190.986 323.575c-20.636-13.815-48.572-8.297-62.429 12.466l-17.176 25.771-21.381-41.522v-80.29c0-41.355-33.645-75-75-75-8.284 0-15 6.716-15 15 0 0 .002 130.685.007 130.841.923 29.575 4.429 43.874 16.044 91.25 3.711 15.138 8.309 33.892 13.949 57.747v37.162c0 8.284 6.716 15 15 15h91c8.284 0 15-6.716 15-15v-32.376l52.444-78.666c13.789-20.695 8.194-48.622-12.458-62.383zm-12.506 45.745-54.961 82.441c-1.643 2.464-2.519 5.359-2.519 8.32v21.919h-61v-23.91c0-1.161-.135-2.317-.401-3.446-5.853-24.792-10.598-44.145-14.41-59.696-11.294-46.064-14.354-58.544-15.189-84.811v-112.567c17.461 6.191 30 22.874 30 42.43v83.925c0 2.389.571 4.743 1.664 6.867l34.721 67.427c2.434 4.726 7.187 7.811 12.494 8.109 5.308.293 10.376-2.235 13.324-6.658l31.313-46.984c4.544-6.808 13.792-8.86 20.808-4.164 6.891 4.592 8.75 13.903 4.156 20.798z"/></g></svg>